<svg xmlns="http://www.w3.org/2000/svg" viewBox="0 0 360 380" width="360" height="380" fill="none"><title>tappStudio mascot, sad</title><ellipse cx="180" cy="338" rx="72" ry="9" fill="#000" opacity=".25"/><path d="M150 270 L148 330 M208 270 L210 330" stroke="#0f9b8e" stroke-width="17" stroke-linecap="round"/><path d="M112 190 Q96 220 98 262" stroke="#13b8a7" stroke-width="18" stroke-linecap="round" fill="none"/><path d="M248 190 Q264 220 262 262" stroke="#13b8a7" stroke-width="18" stroke-linecap="round" fill="none"/><rect x="112" y="44" width="136" height="232" rx="30" fill="#13b8a7"/><rect x="128" y="64" width="18" height="114" rx="9" fill="#fff" opacity=".22"/><ellipse cx="156" cy="128" rx="19" ry="23" fill="#f3f0e8"/><circle cx="156" cy="135" r="9.5" fill="#0e0e0c"/><ellipse cx="204" cy="130" rx="19" ry="23" fill="#f3f0e8"/><circle cx="204" cy="137" r="9.5" fill="#0e0e0c"/><path d="M160 192 Q180 176 200 192" stroke="#0e0e0c" stroke-width="5" stroke-linecap="round" fill="none"/><path d="M222 164 Q230 180 222 190 Q214 180 222 164Z" fill="#7dd3fc"/></svg>