<svg xmlns="http://www.w3.org/2000/svg" viewBox="0 0 360 380" width="360" height="380" fill="none"><title>tappStudio mascot, sleeping</title><ellipse cx="180" cy="338" rx="72" ry="9" fill="#000" opacity=".25"/><path d="M150 270 L148 330 M208 270 L210 330" stroke="#0f9b8e" stroke-width="17" stroke-linecap="round"/><path d="M112 178 Q88 192 82 230" stroke="#13b8a7" stroke-width="18" stroke-linecap="round" fill="none"/><path d="M248 178 Q272 192 278 230" stroke="#13b8a7" stroke-width="18" stroke-linecap="round" fill="none"/><rect x="112" y="44" width="136" height="232" rx="30" fill="#13b8a7"/><rect x="128" y="64" width="18" height="114" rx="9" fill="#fff" opacity=".22"/><path d="M138 130 Q156 146 174 130" stroke="#0e0e0c" stroke-width="6" stroke-linecap="round" fill="none"/><path d="M186 130 Q204 146 222 130" stroke="#0e0e0c" stroke-width="6" stroke-linecap="round" fill="none"/><path d="M166 184 Q180 192 194 184" stroke="#0e0e0c" stroke-width="5" stroke-linecap="round" fill="none"/><g fill="#8a867c" font-family="Geist Mono, monospace" font-weight="700"><text x="262" y="70" font-size="30">Z</text><text x="286" y="42" font-size="22">z</text><text x="304" y="22" font-size="16">z</text></g></svg>